PathFileType	4	(X/Y/Z)	C:\Users\Basilio\Documents\Thesis Gigler\squatting_fais\c3dfiles\047\SLS_pre_front3\markers_experimental.trc
DataRate	CameraRate	NumFrames	NumMarkers	Units	OrigDataRate	OrigDataStartFrame	OrigNumFrames
200.000000	200.000000	4	60	mm	200.000000	335	1340
Frame#	Time	FHD			LBHD			RBHD			C7			T10			CLAV			LSHO			LUUPA			LMUPA			LDUPA			LLEP			LMEP			LRAD			LUL			LRFIN			RSHO			RUPA1			RMUPA			RDUPA			RLEP			RMEP			RRAD			RUL			RUFIN			LASI			RASI			USACR			LSACR			RSACR			LTHI1			LTHI2			LTHI3			LTHI4			LLFC			LMFC			LTIB1			LTIB2			LTIB3			LTIB4			LLMAL			LMMAL			LMT1			LMT2			LMT5			RTHI			RTHI2			RTHI3			RTHI4			RLFC			RMFC			RTIB1			RTIB2			RTIB3			RTIB4			RLMAL			RMMAL			RHEE			RMT1			RMT2			RMT5			
		X1	Y1	Z1	X2	Y2	Z2	X3	Y3	Z3	X4	Y4	Z4	X5	Y5	Z5	X6	Y6	Z6	X7	Y7	Z7	X8	Y8	Z8	X9	Y9	Z9	X10	Y10	Z10	X11	Y11	Z11	X12	Y12	Z12	X13	Y13	Z13	X14	Y14	Z14	X15	Y15	Z15	X16	Y16	Z16	X17	Y17	Z17	X18	Y18	Z18	X19	Y19	Z19	X20	Y20	Z20	X21	Y21	Z21	X22	Y22	Z22	X23	Y23	Z23	X24	Y24	Z24	X25	Y25	Z25	X26	Y26	Z26	X27	Y27	Z27	X28	Y28	Z28	X29	Y29	Z29	X30	Y30	Z30	X31	Y31	Z31	X32	Y32	Z32	X33	Y33	Z33	X34	Y34	Z34	X35	Y35	Z35	X36	Y36	Z36	X37	Y37	Z37	X38	Y38	Z38	X39	Y39	Z39	X40	Y40	Z40	X41	Y41	Z41	X42	Y42	Z42	X43	Y43	Z43	X44	Y44	Z44	X45	Y45	Z45	X46	Y46	Z46	X47	Y47	Z47	X48	Y48	Z48	X49	Y49	Z49	X50	Y50	Z50	X51	Y51	Z51	X52	Y52	Z52	X53	Y53	Z53	X54	Y54	Z54	X55	Y55	Z55	X56	Y56	Z56	X57	Y57	Z57	X58	Y58	Z58	X59	Y59	Z59	X60	Y60	Z60	

336	1.675	-240.3987579345704	1736.69677734375	-1050.6279296875	-414.523895263672	1697.73828125	-1092.005859375	-403.849334716797	1701.445190429688	-944.1732177734377	-435.2620849609376	1512.1630859375	-1019.149597167969	-422.9039306640626	1198.692260742188	-1006.769592285156	-277.9346313476563	1476.409057617188	-1038.565795898438	-357.0335693359376	1505.860107421875	-1183.268798828125	-260.4715881347657	1446.453125	-1311.304931640625	-237.3593444824219	1490.351806640625	-1304.546508789063	-197.1608886718751	1461.031616210938	-1337.595092773438	-140.0459899902344	1488.41455078125	-1356.150146484375	-104.5830001831055	1431.663696289063	-1311.8701171875	124.9884719848633	1525.94775390625	-1360.489135742188	105.9391098022461	1539.0673828125	-1434.794311523438	203.7257843017579	1553.325073242188	-1392.4677734375	-328.8991699218751	1520.755981445313	-891.712341308594	-189.8409118652344	1469.641357421875	-786.3477783203127	-167.3405151367188	1508.5546875	-807.356872558594	-121.0401763916016	1475.695434570313	-787.0706787109377	-55.25124740600587	1497.188720703125	-796.6032714843752	-41.02651977539063	1435.205688476563	-848.5108642578127	204.2808532714844	1530.615600585938	-869.281921386719	198.8750610351563	1539.018188476563	-794.500915527344	281.5978088378907	1556.6552734375	-856.335632324219	-228.8728637695313	990.5747680664065	-1104.999389648438	-226.4101715087891	1013.697021484375	-875.8814697265627	-418.1822204589845	1062.338623046875	-998.0727539062502	-416.8626708984376	1028.46484375	-1024.395629882813	-419.6306762695314	1032.775756835938	-965.8657226562502	-304.8013000488282	825.1518554687502	-1165.2314453125	-263.8459777832032	751.2415771484376	-1163.67919921875	-215.0936126708985	759.4826660156251	-1154.566772460938	-288.2360839843751	695.6865844726564	-1154.953125	-300.2881164550782	523.4518432617189	-1114.305297851563	-266.8299560546876	518.4409179687501	-995.8023681640627	-273.2557373046876	339.9478149414063	-1011.762145996094	-282.9068908691407	290.1459655761719	-1085.351440429688	-266.3578796386719	289.5168457031251	-1039.905639648438	-282.1252746582032	215.0044555664063	-1007.160766601563	-334.7507629394532	118.4885559082032	-1049.202758789063	-313.3533020019532	134.6795806884766	-962.684265136719	-191.2417297363282	62.12438583374025	-978.3356933593752	-189.1949920654297	59.91333007812501	-1023.023254394531	-237.4231109619141	45.57688522338868	-1068.7724609375	-217.9911346435547	851.2222290039065	-776.3627929687502	-152.1856536865235	839.1912841796877	-782.410095214844	-131.9904937744141	861.7902832031252	-794.3325195312502	-115.3722305297852	764.1122436523439	-786.6450195312502	-10.19056415557862	662.8455200195314	-808.6644287109377	2.191721439361573	659.9039306640626	-933.4012451171877	87.66004180908205	574.1726684570314	-830.9282226562502	84.29278564453126	475.8547973632814	-781.627380371094	118.4394226074219	496.704071044922	-805.5756835937502	146.6961975097657	458.3186340332032	-839.4881591796877	175.297836303711	301.7039184570313	-798.448425292969	179.6866760253907	317.1796264648438	-889.195007324219	131.728744506836	242.4286041259766	-840.004577636719	327.7475891113282	302.9946289062501	-892.3511352539065	334.4257812500001	314.8170471191407	-848.7792968750002	308.5574645996094	279.0631408691407	-784.9259033203127	
337	1.68	-240.797103881836	1736.45654296875	-1049.411743164063	-414.2689819335939	1697.589233398438	-1091.979736328125	-403.6720581054689	1701.375	-944.0593872070315	-435.1105041503907	1512.224731445313	-1019.059814453125	-422.9383850097657	1198.870849609375	-1006.714721679688	-277.7942199707032	1476.37255859375	-1038.5615234375	-356.6338500976563	1505.980224609375	-1183.30810546875	-260.3745727539063	1446.534912109375	-1311.262817382813	-237.3484344482422	1490.4326171875	-1304.46240234375	-197.002426147461	1461.034057617188	-1337.49462890625	-139.9597778320313	1488.518798828125	-1356.136962890625	-104.5629577636719	1431.706665039063	-1311.844604492188	125.0817108154297	1525.868530273438	-1360.456420898438	106.0139846801758	1539.079345703125	-1434.817749023438	203.8773193359376	1553.264404296875	-1392.455444335938	-328.8222045898438	1520.761352539063	-891.6306762695315	-189.5612945556641	1469.635498046875	-786.3402099609377	-167.2460021972657	1508.63330078125	-807.330505371094	-120.7809295654297	1475.679931640625	-787.194763183594	-55.109188079834	1497.214599609375	-796.6157226562502	-40.89734649658204	1435.178588867188	-848.5817871093752	204.5337066650391	1530.5205078125	-869.3120117187502	199.2329406738282	1539.517333984375	-794.9407958984377	282.0032958984376	1556.582885742188	-856.6518554687502	-228.913314819336	990.6021728515627	-1105.004028320313	-226.4416046142579	1013.675659179688	-875.856140136719	-418.2984008789064	1062.345092773438	-998.0518188476565	-416.9042968750001	1028.464721679688	-1024.357543945313	-419.7025451660157	1032.75048828125	-965.8061523437502	-304.7204895019532	825.184753417969	-1165.203491210938	-263.7199401855469	751.2715454101564	-1163.750244140625	-215.0614776611329	759.4887084960939	-1154.5244140625	-288.1075744628907	695.6365356445314	-1154.948120117188	-300.0630187988282	523.3419799804689	-1114.285400390625	-266.5094604492188	518.3684082031251	-995.8831787109377	-273.0036315917969	339.9624328613282	-1011.983459472656	-282.7520141601563	290.2301025390626	-1085.34130859375	-266.3586120605469	289.6380615234376	-1039.965454101563	-282.0493469238282	215.0664978027344	-1007.115173339844	-334.6758728027344	118.5264282226563	-1049.184204101563	-313.3624572753907	134.6804504394532	-962.6572875976565	-191.2197418212891	62.1224937438965	-978.3395996093752	-189.1569366455078	59.98519134521486	-1023.022399902344	-237.4399414062501	45.57460403442384	-1068.755249023438	-218.0681152343751	851.2395019531252	-776.301696777344	-152.2093505859375	839.1751708984377	-782.3640136718752	-132.0325775146485	861.7740478515627	-794.3176879882815	-115.4087142944336	764.0510253906251	-786.589050292969	-10.28252124786377	662.7962036132814	-808.6473388671877	2.149455308914185	659.8735961914064	-933.4042968750002	87.5745086669922	574.0927124023439	-830.8148193359377	84.22459411621095	475.7948303222657	-781.608825683594	118.3944091796875	496.6666870117189	-805.659362792969	146.6692810058594	458.3267822265626	-839.4812622070315	175.2594146728516	301.7257690429688	-798.4346313476565	179.4243621826172	317.0990295410157	-889.110046386719	131.608139038086	242.3926544189454	-839.9993896484377	327.7249145507813	303.0252075195313	-892.2547607421877	334.2701110839844	314.7803039550782	-848.5191040039065	308.5617980957032	279.0692749023438	-784.867126464844	
338	1.685	-239.9357299804688	1736.793212890625	-1050.584716796875	-414.1051635742189	1697.649780273438	-1091.869995117188	-403.4194946289064	1701.341674804688	-944.0088500976565	-435.0796508789064	1512.297607421875	-1018.973388671875	-422.860809326172	1198.94580078125	-1006.632751464844	-277.5564575195313	1476.503662109375	-1038.473022460938	-356.6554260253907	1506.04150390625	-1183.234008789063	-260.3653564453126	1446.6884765625	-1311.198120117188	-237.2435760498047	1490.462280273438	-1304.432861328125	-197.0360565185547	1461.116455078125	-1337.462646484375	-139.9232177734375	1488.51123046875	-1356.09326171875	-104.4841003417969	1431.68212890625	-1311.846557617188	125.4139175415039	1525.85400390625	-1360.451416015625	106.1737899780274	1539.0556640625	-1434.869873046875	204.0174407958985	1553.13232421875	-1392.433837890625	-328.7299194335938	1520.779296875	-891.4624633789065	-189.4195556640625	1469.61181640625	-786.2885742187502	-167.068099975586	1508.624389648438	-807.288513183594	-120.7759857177735	1475.619384765625	-786.9992675781252	-54.97207641601564	1497.179321289063	-796.6452636718752	-40.7650375366211	1435.181762695313	-848.5981445312502	204.6901397705079	1530.432006835938	-869.3754882812502	199.3390502929688	1538.881958007813	-794.7117919921877	282.2646789550782	1556.48193359375	-856.8103027343752	-228.9704132080079	990.6389770507815	-1104.985961914063	-226.4517974853516	1013.677978515625	-875.8885498046877	-418.3226928710939	1062.356811523438	-998.0144042968752	-416.9502868652345	1028.46337890625	-1024.28466796875	-419.7471618652345	1032.728759765625	-965.7613525390627	-304.7388000488282	825.1489257812502	-1165.200805664063	-263.6961975097657	751.2348022460939	-1163.730346679688	-214.9465637207032	759.5458984375001	-1154.577026367188	-287.9887390136719	695.6311645507814	-1154.98291015625	-299.9341430664063	523.3478393554689	-1114.296142578125	-266.1979675292969	518.3659667968751	-995.9859619140627	-272.6783447265626	339.9058532714844	-1012.137023925781	-282.5530395507813	290.2349853515626	-1085.31591796875	-266.2982788085938	289.6203613281251	-1039.9169921875	-282.0535278320313	215.0682983398438	-1007.045654296875	-334.7055358886719	118.5397720336914	-1049.167846679688	-313.3410034179688	134.670654296875	-962.6520996093752	-191.2819519042969	62.14041900634767	-978.273620605469	-189.1788024902344	59.94873428344728	-1023.009826660156	-237.3979797363282	45.60482788085938	-1068.810302734375	-218.1930236816407	851.2434692382815	-776.1856689453127	-152.2310485839844	839.189636230469	-782.3779296875002	-132.040756225586	861.7399902343752	-794.3247070312502	-115.4420928955078	764.0435180664064	-786.4661254882815	-10.38433265686035	662.8519897460939	-808.6066894531252	2.122291564941407	659.8626708984376	-933.4606933593752	87.4471893310547	574.0969848632814	-830.737243652344	84.04424285888673	475.7374267578126	-781.462829589844	118.3675231933594	496.6441955566407	-805.6641235351565	146.5584106445313	458.2593078613282	-839.4832763671877	175.1095275878907	301.5820007324219	-798.5449829101565	179.9642028808594	317.6782836914063	-889.2639160156252	131.2633819580078	242.6971130371094	-839.7244262695315	327.7698974609376	303.0442810058594	-892.187194824219	334.0134277343751	314.6443481445313	-848.1692504882815	308.4849853515626	279.0849609375001	-784.810974121094	
339	1.69	-240.2607116699219	1736.510864257813	-1049.372680664063	-413.9954528808595	1697.721313476563	-1091.829467773438	-403.2283935546876	1701.284057617188	-943.8851318359377	-434.9010620117189	1512.304565429688	-1018.946655273438	-422.9289550781251	1199.00244140625	-1006.56005859375	-277.4043884277344	1476.499267578125	-1038.502685546875	-356.5785827636719	1506.11083984375	-1183.191650390625	-260.2915954589844	1446.73486328125	-1311.21630859375	-237.2066497802735	1490.527954101563	-1304.345336914063	-196.9649658203126	1461.14794921875	-1337.478149414063	-139.8507537841797	1488.598876953125	-1356.0947265625	-104.4418258666992	1431.834838867188	-1311.887939453125	125.2633056640625	1525.686279296875	-1360.3603515625	106.0886917114258	1539.05908203125	-1434.822021484375	204.1457672119141	1553.140258789063	-1392.481689453125	-328.3370666503907	1520.74609375	-891.5215454101565	-189.2081146240235	1469.595336914063	-786.1422119140627	-166.791015625	1508.666137695313	-807.3252563476565	-120.6361312866211	1475.630004882813	-786.9959106445315	-54.87673950195314	1497.150634765625	-796.701843261719	-40.43037796020509	1435.075073242188	-848.6954345703127	204.8492584228516	1530.315307617188	-869.4106445312502	199.5389556884766	1539.2724609375	-795.0611572265627	282.5338439941407	1556.392333984375	-856.9891357421877	-228.9363403320313	990.6175537109377	-1104.9658203125	-226.4866790771485	1013.668701171875	-875.8870239257815	-418.3713684082032	1062.311279296875	-997.9761962890627	-416.9826660156251	1028.46533203125	-1024.226318359375	-419.9168090820314	1032.763061523438	-965.7300415039065	-304.7269592285157	825.1258544921877	-1165.204467773438	-263.6214904785157	751.2447509765626	-1163.735717773438	-214.812240600586	759.5489501953126	-1154.634521484375	-287.8472290039063	695.6092529296876	-1154.989624023438	-299.6284484863282	523.2517089843751	-1114.31591796875	-266.0644836425782	518.3393554687501	-995.903991699219	-272.4864196777344	339.9023132324219	-1012.019409179688	-282.3622131347657	290.2549743652344	-1085.288940429688	-266.1968688964844	289.6786804199219	-1039.933471679688	-281.9990539550782	215.0623016357422	-1006.974914550781	-334.5982055664063	118.5248947143555	-1049.194458007813	-313.3021545410157	134.6861267089844	-962.649597167969	-191.1631774902344	62.15687561035158	-978.2807617187502	-189.2574157714844	59.93209457397462	-1022.986877441406	-237.3020782470704	45.72906112670899	-1068.781616210938	-218.3243103027344	851.2202758789065	-776.1308593750002	-152.2988586425782	839.1653442382815	-782.2631835937502	-132.0343780517578	861.7508544921877	-794.2805175781252	-115.6262969970703	764.0056762695314	-786.3753662109377	-10.5164213180542	662.8327636718751	-808.4622192382815	2.001939773559571	659.8145141601564	-933.496765136719	87.38301849365236	574.2926635742189	-831.266052246094	83.83367156982423	475.5787353515626	-781.4246826171877	118.2838287353516	496.6374511718751	-805.635437011719	146.5301208496094	458.2171630859376	-839.4134521484377	175.1751556396485	301.7176208496094	-798.449157714844	179.4002380371094	317.1427917480469	-889.1059570312502	131.23095703125	242.6268768310547	-839.7425537109377	327.6673278808594	303.0275878906251	-892.2326660156252	334.0032043457032	314.7249755859376	-848.3127441406252	308.4179382324219	279.1270751953126	-784.8604125976565	
